<svg width="200" height="64" viewBox="0 0 200 64" fill="none" xmlns="http://www.w3.org/2000/svg">
<rect x="0.495117" width="198.523" height="64" rx="25" fill="#EC5353"/>
<path d="M27.8328 47V22.48H18.2328V19H41.3928V22.48H31.7928V47H27.8328ZM49.3893 31.08H63.7893V34.48H49.3893V31.08ZM49.7493 43.52H66.0693V47H45.7493V19H65.5093V22.48H49.7493V43.52ZM72.5462 47V19H75.8262L94.3462 42H92.6262V19H96.6262V47H93.3462L74.8262 24H76.5462V47H72.5462ZM105.007 47V19H116.807C119.794 19 122.42 19.5867 124.687 20.76C126.98 21.9333 128.754 23.5733 130.007 25.68C131.287 27.7867 131.927 30.2267 131.927 33C131.927 35.7733 131.287 38.2133 130.007 40.32C128.754 42.4267 126.98 44.0667 124.687 45.24C122.42 46.4133 119.794 47 116.807 47H105.007ZM109.007 43.52H116.567C118.887 43.52 120.887 43.08 122.567 42.2C124.274 41.32 125.594 40.0933 126.527 38.52C127.46 36.92 127.927 35.08 127.927 33C127.927 30.8933 127.46 29.0533 126.527 27.48C125.594 25.9067 124.274 24.68 122.567 23.8C120.887 22.92 118.887 22.48 116.567 22.48H109.007V43.52Z" fill="white"/>
<path d="M190.96 54.1782L180.269 43.8405C183.368 40.2425 184.913 35.6277 184.583 30.9559C184.254 26.2842 182.074 21.9153 178.499 18.7581C174.923 15.6008 170.227 13.8983 165.386 14.0047C160.546 14.1111 155.934 16.0182 152.51 19.3293C149.087 22.6404 147.115 27.1005 147.005 31.7819C146.895 36.4633 148.655 41.0055 151.92 44.4636C155.184 47.9217 159.702 50.0294 164.532 50.3484C169.362 50.6674 174.134 49.1729 177.854 46.1761L188.543 56.5159C188.702 56.6693 188.89 56.7911 189.098 56.8742C189.305 56.9572 189.527 57 189.752 57C189.976 57 190.199 56.9572 190.406 56.8742C190.613 56.7911 190.802 56.6693 190.96 56.5159C191.119 56.3624 191.245 56.1801 191.331 55.9796C191.417 55.779 191.461 55.5641 191.461 55.347C191.461 55.13 191.417 54.915 191.331 54.7145C191.245 54.5139 191.119 54.3317 190.96 54.1782ZM150.464 32.2183C150.464 29.2775 151.365 26.4029 153.054 23.9578C154.744 21.5126 157.145 19.6069 159.954 18.4816C162.763 17.3562 165.854 17.0617 168.836 17.6354C171.819 18.2092 174.558 19.6252 176.708 21.7046C178.858 23.784 180.322 26.4333 180.915 29.3176C181.509 32.2018 181.204 35.1913 180.041 37.9082C178.877 40.625 176.907 42.9472 174.378 44.581C171.85 46.2147 168.878 47.0868 165.837 47.0868C161.761 47.0824 157.854 45.5145 154.971 42.727C152.089 39.9396 150.468 36.1603 150.464 32.2183Z" fill="white" stroke="white"/>
</svg>
