<svg width="72" height="73" viewBox="0 0 72 73" fill="none" xmlns="http://www.w3.org/2000/svg">
<g filter="url(#filter0_d_92_249)">
<rect x="4" width="64" height="65" rx="22" fill="#EC5353"/>
<path d="M61.4933 55.1126L50.6726 44.5344C53.8089 40.8528 55.3728 36.1306 55.039 31.3503C54.7052 26.5699 52.4994 22.0994 48.8805 18.8687C45.2616 15.6381 40.5081 13.8959 35.609 14.0048C30.7099 14.1137 26.0423 16.0651 22.5772 19.4532C19.1121 22.8413 17.1163 27.4052 17.0049 32.1954C16.8936 36.9857 18.6753 41.6335 21.9794 45.172C25.2835 48.7106 29.8556 50.8673 34.7446 51.1937C39.6336 51.5201 44.4631 49.9909 48.2284 46.9243L59.0469 57.5046C59.2076 57.6617 59.3983 57.7862 59.6082 57.8712C59.818 57.9562 60.043 58 60.2701 58C60.4973 58 60.7223 57.9562 60.9321 57.8712C61.142 57.7862 61.3327 57.6617 61.4933 57.5046C61.654 57.3475 61.7814 57.1611 61.8683 56.9559C61.9553 56.7506 62 56.5307 62 56.3086C62 56.0865 61.9553 55.8665 61.8683 55.6613C61.7814 55.4561 61.654 55.2696 61.4933 55.1126ZM20.5056 32.6419C20.5056 29.6328 21.4181 26.6913 23.1279 24.1893C24.8377 21.6874 27.2678 19.7373 30.111 18.5858C32.9543 17.4342 36.0829 17.1329 39.1012 17.72C42.1196 18.307 44.8921 19.7561 47.0682 21.8838C49.2443 24.0116 50.7263 26.7225 51.3267 29.6738C51.9271 32.6251 51.6189 35.6841 50.4412 38.4642C49.2635 41.2442 47.2692 43.6204 44.7103 45.2921C42.1515 46.9639 39.1431 47.8562 36.0656 47.8562C31.9402 47.8517 27.9851 46.2474 25.068 43.3951C22.151 40.5428 20.5101 36.6756 20.5056 32.6419Z" fill="white" stroke="white"/>
</g>
<defs>
<filter id="filter0_d_92_249" x="0" y="0" width="72" height="73" filterUnits="userSpaceOnUse" color-interpolation-filters="sRGB">
<feFlood flood-opacity="0" result="BackgroundImageFix"/>
<feColorMatrix in="SourceAlpha" type="matrix" values="0 0 0 0 0 0 0 0 0 0 0 0 0 0 0 0 0 0 127 0" result="hardAlpha"/>
<feOffset dy="4"/>
<feGaussianBlur stdDeviation="2"/>
<feComposite in2="hardAlpha" operator="out"/>
<feColorMatrix type="matrix" values="0 0 0 0 0 0 0 0 0 0 0 0 0 0 0 0 0 0 0.25 0"/>
<feBlend mode="normal" in2="BackgroundImageFix" result="effect1_dropShadow_92_249"/>
<feBlend mode="normal" in="SourceGraphic" in2="effect1_dropShadow_92_249" result="shape"/>
</filter>
</defs>
</svg>
