<svg width="47" height="45" viewBox="0 0 47 45" fill="none" xmlns="http://www.w3.org/2000/svg">
<path id="Vector" d="M45.3481 41.1782L34.657 30.8405C37.7557 27.2425 39.3008 22.6277 38.9711 17.9559C38.6413 13.2842 36.4619 8.91532 32.8863 5.75807C29.3107 2.60082 24.6142 0.89831 19.7738 1.0047C14.9333 1.11109 10.3216 3.0182 6.89805 6.32929C3.47446 9.64038 1.50256 14.1005 1.39256 18.7819C1.28255 23.4633 3.04291 28.0055 6.30743 31.4636C9.57195 34.9217 14.0893 37.0294 18.9197 37.3484C23.7502 37.6674 28.5218 36.1729 32.242 33.1761L42.931 43.5159C43.0897 43.6693 43.2781 43.7911 43.4855 43.8742C43.6928 43.9572 43.9151 44 44.1395 44C44.364 44 44.5862 43.9572 44.7936 43.8742C45.0009 43.7911 45.1893 43.6693 45.3481 43.5159C45.5068 43.3624 45.6327 43.1801 45.7185 42.9796C45.8044 42.779 45.8486 42.5641 45.8486 42.347C45.8486 42.13 45.8044 41.915 45.7185 41.7145C45.6327 41.5139 45.5068 41.3317 45.3481 41.1782ZM4.85126 19.2183C4.85126 16.2775 5.75291 13.4029 7.44219 10.9578C9.13147 8.51264 11.5325 6.60691 14.3417 5.48155C17.1508 4.35619 20.242 4.06174 23.2242 4.63545C26.2064 5.20915 28.9457 6.62524 31.0957 8.70464C33.2458 10.784 34.71 13.4333 35.3032 16.3176C35.8964 19.2018 35.5919 22.1913 34.4283 24.9082C33.2647 27.625 31.2943 29.9472 28.7661 31.581C26.2379 33.2147 23.2655 34.0868 20.2249 34.0868C16.149 34.0824 12.2412 32.5145 9.3591 29.727C6.47695 26.9396 4.85578 23.1603 4.85126 19.2183Z" fill="white" stroke="white"/>
</svg>
